<?xml version="1.0" encoding="UTF-8" standalone="no"?>
<!-- Created with Inkscape (http://www.inkscape.org/) -->

<svg
   xmlns:dc="http://purl.org/dc/elements/1.1/"
   xmlns:cc="http://creativecommons.org/ns#"
   xmlns:rdf="http://www.w3.org/1999/02/22-rdf-syntax-ns#"
   xmlns:svg="http://www.w3.org/2000/svg"
   xmlns="http://www.w3.org/2000/svg"
   xmlns:sodipodi="http://sodipodi.sourceforge.net/DTD/sodipodi-0.dtd"
   xmlns:inkscape="http://www.inkscape.org/namespaces/inkscape"
   width="210mm"
   height="297mm"
   viewBox="0 0 744.09448819 1052.3622047"
   id="svg2"
   version="1.1"
   inkscape:version="0.91 r13725"
   sodipodi:docname="emblems.svg">
  <defs
     id="defs4" />
  <sodipodi:namedview
     id="base"
     pagecolor="#ffffff"
     bordercolor="#666666"
     borderopacity="1.0"
     inkscape:pageopacity="0.0"
     inkscape:pageshadow="2"
     inkscape:zoom="3.959798"
     inkscape:cx="50.669236"
     inkscape:cy="1008.2781"
     inkscape:document-units="px"
     inkscape:current-layer="layer1"
     showgrid="false"
     inkscape:window-width="1280"
     inkscape:window-height="962"
     inkscape:window-x="-8"
     inkscape:window-y="-8"
     inkscape:window-maximized="1" />
  <metadata
     id="metadata7">
    <rdf:RDF>
      <cc:Work
         rdf:about="">
        <dc:format>image/svg+xml</dc:format>
        <dc:type
           rdf:resource="http://purl.org/dc/dcmitype/StillImage" />
        <dc:title></dc:title>
      </cc:Work>
    </rdf:RDF>
  </metadata>
  <g
     inkscape:label="Layer 1"
     inkscape:groupmode="layer"
     id="layer1">
    <path
       style="fill:#e7a516;fill-opacity:0.25098039;fill-rule:evenodd;stroke:#e7a516;stroke-width:3;stroke-linecap:butt;stroke-linejoin:miter;stroke-miterlimit:4;stroke-dasharray:none;stroke-opacity:1"
       d="m 63.464484,2.362207 -18.92857,36.78571 -41.4285778,6.42857 29.2857178,30 -6.07143,41.071433 37.14286,-19.285713 36.428561,18.571433 -6.071421,-41.071433 28.928566,-28.92858 -40.357136,-6.78571 z"
       id="path3349"
       inkscape:connector-curvature="0"
       sodipodi:nodetypes="ccccccccccc" />
    <path
       style="fill:#e7a516;fill-opacity:0.25098039;fill-rule:evenodd;stroke:#e7a516;stroke-width:3;stroke-linecap:butt;stroke-linejoin:miter;stroke-miterlimit:4;stroke-dasharray:none;stroke-opacity:1"
       d="m 64.999998,4.8622042 -44.64286,9.2857098 c 0,0 -0.89688,41.0123 11.42857,68.39286 13.0206,28.924816 33.57143,45.178566 33.57143,45.178566 0,0 19.58301,-15.04277 33.57144,-46.249996 12.115162,-27.02813 10.714282,-67.32143 10.714282,-67.32143 z"
       id="path4151"
       inkscape:connector-curvature="0"
       sodipodi:nodetypes="ccscscc" />
    <path
       style="fill:none;fill-opacity:0.25098039;stroke:#e7a516;stroke-width:7;stroke-miterlimit:4;stroke-dasharray:none;stroke-opacity:1"
       id="path4163"
       sodipodi:type="arc"
       sodipodi:cx="62.85717"
       sodipodi:cy="63.076488"
       sodipodi:rx="48.57143"
       sodipodi:ry="48.57143"
       sodipodi:start="0"
       sodipodi:end="6.2753139"
       sodipodi:open="true"
       d="M 111.4286,63.076488 A 48.57143,48.57143 0 0 1 62.952751,111.64782 48.57143,48.57143 0 0 1 14.286116,63.267651 48.57143,48.57143 0 0 1 62.570428,14.505905 48.57143,48.57143 0 0 1 111.4271,62.694167" />
    <path
       style="fill:none;fill-rule:evenodd;stroke:#e7a516;stroke-width:4;stroke-linecap:butt;stroke-linejoin:miter;stroke-miterlimit:4;stroke-dasharray:none;stroke-opacity:1"
       d="M 63.277415,-0.49679868 63.549765,127.04839"
       id="path4165"
       inkscape:connector-curvature="0"
       sodipodi:nodetypes="cc" />
    <path
       style="fill:none;fill-rule:evenodd;stroke:#e7a516;stroke-width:4;stroke-linecap:butt;stroke-linejoin:miter;stroke-miterlimit:4;stroke-dasharray:none;stroke-opacity:1"
       d="m 0.44643547,63.165771 125.85959453,0.037"
       id="path4167"
       inkscape:connector-curvature="0"
       sodipodi:nodetypes="cc" />
    <path
       style="fill:#e7a516;fill-opacity:0.25098039;fill-rule:evenodd;stroke:#e7a516;stroke-width:4;stroke-linecap:butt;stroke-linejoin:miter;stroke-miterlimit:4;stroke-dasharray:none;stroke-opacity:1"
       d="m 80.52215,4.3737582 -32.70368,-0.0631 0,42.6158098 -43.3102927,0.0631 -0.0631,33.145642 43.1840227,0.0631 0,42.48954 33.01936,0.12627 0.0632,-42.55267 42.42641,0.0631 0,-33.145632 -42.67896,-0.0631 z"
       id="path4173"
       inkscape:connector-curvature="0"
       sodipodi:nodetypes="ccccccccccccc" />
    <path
       style="fill:#e7a516;fill-opacity:1;fill-rule:evenodd;stroke:none;stroke-width:1px;stroke-linecap:butt;stroke-linejoin:miter;stroke-opacity:1"
       d="m 33.158797,95.02989 -15.89286,-3.57143 -11.7857097,12.14286 -3.75,-0.35715 C 2.4548673,80.43311 23.237747,80.09517 34.051657,79.3156 L 79.58737,33.779888 C 79.94451,21.458458 80.6588,2.7084582 103.1588,0.56559819 l 0.35714,4.64286001 -11.42857,11.7857098 2.5,15.35715 16.78571,4.64285 11.78572,-12.5 4.46429,0.71429 c -2.9762,22.2619 -19.34525,22.02381 -32.85715,23.75 L 49.4088,94.3156 c -1.40378,15.29744 -1.89413,30.23051 -24.285723,33.57143 l -0.53571,-4.82143 12.14286,-12.32143 z"
       id="path4179"
       inkscape:connector-curvature="0"
       sodipodi:nodetypes="ccccccccccccccccccc" />
  </g>
</svg>
